<?xml version="1.0" encoding="UTF-8" standalone="no"?>
<!-- Created with Inkscape (http://www.inkscape.org/) -->

<svg
   xmlns:dc="http://purl.org/dc/elements/1.1/"
   xmlns:cc="http://creativecommons.org/ns#"
   xmlns:rdf="http://www.w3.org/1999/02/22-rdf-syntax-ns#"
   xmlns:svg="http://www.w3.org/2000/svg"
   xmlns="http://www.w3.org/2000/svg"
   xmlns:sodipodi="http://sodipodi.sourceforge.net/DTD/sodipodi-0.dtd"
   xmlns:inkscape="http://www.inkscape.org/namespaces/inkscape"
   width="45mm"
   height="45mm"
   viewBox="0 0 45.000001 44.999999"
   version="1.1"
   id="svg8"
   inkscape:version="0.92.1 r15371"
   sodipodi:docname="Icotw2RAP.svg">
  <defs
     id="defs2" />
  <sodipodi:namedview
     id="base"
     pagecolor="#ffffff"
     bordercolor="#666666"
     borderopacity="1.0"
     inkscape:pageopacity="0.0"
     inkscape:pageshadow="2"
     inkscape:zoom="3.5338971"
     inkscape:cx="33.961777"
     inkscape:cy="77.911597"
     inkscape:document-units="mm"
     inkscape:current-layer="layer1"
     showgrid="false"
     inkscape:snap-global="false"
     fit-margin-top="0"
     fit-margin-left="0"
     fit-margin-right="0"
     fit-margin-bottom="0"
     inkscape:window-width="1920"
     inkscape:window-height="1051"
     inkscape:window-x="-9"
     inkscape:window-y="-9"
     inkscape:window-maximized="1" />
  <metadata
     id="metadata5">
    <rdf:RDF>
      <cc:Work
         rdf:about="">
        <dc:format>image/svg+xml</dc:format>
        <dc:type
           rdf:resource="http://purl.org/dc/dcmitype/StillImage" />
        <dc:title></dc:title>
      </cc:Work>
    </rdf:RDF>
  </metadata>
  <g
     inkscape:label="Livello 1"
     inkscape:groupmode="layer"
     id="layer1"
     transform="translate(-38.201368,-233.3788)">
    <path
       inkscape:connector-curvature="0"
       id="path80"
       d="m 51.235985,270.33083 c -0.148412,-0.023 -0.148676,-0.0236 -0.025,-0.0566 0.08056,-0.0215 -0.04241,-0.0456 -0.345899,-0.0677 -1.20359,-0.0878 -3.57909,-0.45935 -4.528971,-0.70844 -0.866777,-0.22729 -2.986956,-0.9488 -3.818372,-1.29941 -0.716012,-0.30194 -2.747783,-1.30357 -3.214173,-1.58454 l -0.282725,-0.17033 1.557691,0.002 c 1.007627,0.001 1.751907,-0.0219 2.107677,-0.0653 1.93491,-0.23608 3.967724,-0.78709 5.636847,-1.52793 1.185488,-0.52617 1.588428,-0.74834 2.686443,-1.48124 0.880781,-0.58791 1.051459,-0.72128 1.051459,-0.82163 0,-0.13128 -0.01657,-0.13494 -0.917032,-0.20255 -0.805073,-0.0604 -1.933693,-0.41944 -2.957864,-0.94086 -0.900258,-0.45833 -1.587086,-0.95877 -2.252006,-1.64088 -0.69047,-0.70832 -0.975814,-1.06702 -1.339593,-1.68396 -0.286681,-0.48619 -0.862194,-1.69633 -0.824607,-1.73392 0.01321,-0.0132 0.213534,6.7e-4 0.445161,0.0308 0.885782,0.11542 3.212205,-0.0516 3.405088,-0.24453 0.102703,-0.1027 4e-4,-0.19294 -0.291464,-0.2571 -0.384663,-0.0846 -1.405266,-0.49683 -2.086972,-0.84303 -0.955833,-0.48541 -1.933071,-1.29997 -2.712251,-2.26075 -0.878078,-1.08274 -1.556435,-2.55278 -1.814993,-3.93321 -0.102454,-0.547 -0.224216,-1.61225 -0.188381,-1.64809 0.01067,-0.0107 0.209607,0.0685 0.442079,0.17588 0.232471,0.1074 0.628345,0.26418 0.87972,0.3484 0.498271,0.16693 2.086919,0.50714 2.368184,0.50714 0.159735,0 0.295133,-0.0701 0.295133,-0.15283 0,-0.0181 -0.214639,-0.19629 -0.476976,-0.39608 -0.680218,-0.51803 -1.559118,-1.49656 -2.056813,-2.28997 -0.27695,-0.4415 -0.694466,-1.36602 -0.908168,-2.01099 -0.597522,-1.80337 -0.609224,-3.71767 -0.03347,-5.47485 0.179366,-0.54742 0.666718,-1.67496 0.723962,-1.67496 0.01974,0 0.126309,0.10724 0.236831,0.23831 0.70473,0.83577 2.585728,2.67443 3.484564,3.40613 1.612848,1.31295 4.003415,2.74693 6.022449,3.61257 1.449093,0.62128 3.12739,1.1897 4.182319,1.4165 1.692909,0.36395 3.767341,0.67461 4.512379,0.67576 0.36727,5.6e-4 0.349515,0.0583 0.238055,-0.7745 -0.147366,-1.10111 -0.08312,-2.3839 0.172788,-3.44991 0.3504,-1.45963 0.89461,-2.55336 1.830121,-3.67808 1.261591,-1.51675 3.374765,-2.74076 5.309899,-3.07564 0.282454,-0.0489 0.488671,-0.10425 0.458261,-0.12305 -0.03282,-0.0203 -0.0079,-0.0469 0.06143,-0.0654 0.168123,-0.045 1.993082,-0.0302 2.141669,0.0174 0.10674,0.0342 0.110391,0.0414 0.025,0.0494 -0.055,0.005 0.202301,0.0739 0.571778,0.15271 0.91257,0.19475 1.355017,0.34622 2.179166,0.74603 0.80807,0.39201 1.590834,0.8988 2.117144,1.37074 0.389884,0.3496 0.572156,0.43032 0.972694,0.43079 0.690597,8e-4 3.139146,-0.8593 4.761609,-1.67261 l 0.514181,-0.25775 -0.122927,0.32784 c -0.272944,0.7279 -1.048258,1.96823 -1.676327,2.68173 -0.356285,0.40475 -1.302469,1.25437 -1.630068,1.46371 -0.165329,0.10565 -0.262449,0.20278 -0.262449,0.26249 0,0.15611 0.158294,0.14511 1.224967,-0.0851 0.953686,-0.20587 1.593703,-0.38311 2.708333,-0.75003 0.45651,-0.15028 0.838621,-0.26463 0.849136,-0.25411 0.01051,0.0105 -0.20004,0.30802 -0.4679,0.66113 -0.577931,0.76186 -1.741856,1.97412 -2.621219,2.73007 -0.697705,0.59979 -0.838408,0.76072 -1.028869,1.17674 -0.117625,0.25692 -0.133022,0.36662 -0.170088,1.21174 -0.104738,2.38812 -0.315268,3.93774 -0.795334,5.85411 -1.015156,4.05239 -2.659014,7.38977 -5.22099,10.59971 -0.737098,0.92353 -2.774977,2.94532 -3.745549,3.71599 -1.479633,1.17488 -2.361998,1.74021 -4.157128,2.66348 -2.339595,1.20329 -4.895472,2.02057 -7.481196,2.39223 -0.746316,0.10727 -2.657568,0.32086 -2.966999,0.33157 -0.09882,0.003 -0.09893,0.005 -0.0039,0.0417 0.08198,0.0321 0.06995,0.0438 -0.075,0.0728 -0.184987,0.0371 -2.422573,0.0292 -2.672587,-0.01 z"
       style="fill:#5ba6da;stroke:#000000;stroke-width:0.2;stroke-miterlimit:4;stroke-dasharray:none" />
    <g
       id="g116"
       transform="translate(-0.77339669,-2.1029058)"
       style="fill:#ff6600">
      <path
         style="fill:#ff6600;fill-opacity:1;stroke-width:0.99999994"
         d="m 64.959479,269.13215 c 1.073809,-3.03515 2.110624,-5.96608 2.304034,-6.51318 l 0.351655,-0.99474 -0.353751,-0.17296 -0.35375,-0.17297 0.311378,-0.65293 0.311378,-0.65293 2.28494,1.08968 2.28494,1.08967 0.218596,-0.4449 c 0.198384,-0.40377 0.225587,-0.45297 0.294204,-0.5321 0.371474,-0.42837 0.805781,-0.5824 1.371086,-0.48627 0.113667,0.0193 0.118359,0.0215 1.598587,0.72233 1.579056,0.74768 1.599563,0.75829 1.7678,0.91518 0.338369,0.31553 0.487398,0.72149 0.433767,1.1816 -0.0234,0.20077 -0.06427,0.31381 -0.267652,0.74028 l -0.189186,0.3967 2.285986,1.09018 2.285986,1.09017 -0.311378,0.65293 -0.311378,0.65293 -0.357066,-0.16602 -0.357065,-0.16602 -0.551631,0.89937 c -0.303398,0.49465 -1.928318,3.14512 -3.610934,5.88993 l -3.059302,4.99056 -5.166812,-2.46402 -5.166811,-2.46403 z m 11.020738,3.3357 c 1.761892,-2.87676 3.212891,-5.24941 3.224443,-5.27256 l 0.02101,-0.0421 -5.133671,-2.44821 c -4.880401,-2.32744 -5.134222,-2.4471 -5.14484,-2.42549 -0.01624,0.0331 -4.115998,11.59377 -4.119362,11.616 -0.0023,0.0149 0.79867,0.40014 3.973078,1.91077 l 3.97591,1.89206 z m -7.148342,-3.4571 1.713129,-3.59227 0.653139,0.31148 0.653139,0.31148 -1.713129,3.59226 -1.713129,3.59227 -0.653139,-0.31148 -0.653139,-0.31148 z m 1.959417,0.93443 1.713129,-3.59226 0.653139,0.31147 0.653138,0.31148 -1.713129,3.59227 -1.713129,3.59226 -0.653139,-0.31148 -0.653139,-0.31148 z m 1.959416,0.93443 1.713129,-3.59226 0.653139,0.31148 0.653139,0.31148 -1.713129,3.59226 -1.713129,3.59226 -0.653139,-0.31147 -0.653139,-0.31148 z m 3.426258,-7.18452 0.155739,-0.32657 -1.306277,-0.62296 -1.306278,-0.62296 -0.155739,0.32657 -0.155739,0.32657 1.306278,0.62296 1.306277,0.62296 z"
         id="path132"
         inkscape:connector-curvature="0" />
      <path
         style="fill:#ff6600;fill-opacity:1;stroke-width:0.99999994"
         d="m 65.313484,268.13453 2.305884,-6.51626 -0.355948,-0.16978 -0.355953,-0.16977 0.311478,-0.65314 0.311478,-0.65314 2.285986,1.09017 2.285985,1.09018 0.189186,-0.39671 c 0.138452,-0.29032 0.208328,-0.42361 0.260569,-0.49703 0.309341,-0.43481 0.785226,-0.64891 1.307119,-0.58808 0.238137,0.0277 0.229141,0.0239 1.790116,0.76831 1.560975,0.74442 1.552312,0.73986 1.723771,0.90744 0.168477,0.16466 0.282007,0.34444 0.352256,0.55782 0.06716,0.20399 0.08462,0.3827 0.05893,0.60309 -0.0234,0.20077 -0.06427,0.31381 -0.267652,0.74028 l -0.189186,0.3967 2.285986,1.09018 2.285986,1.09017 -0.311478,0.65314 -0.311478,0.65314 -0.355973,-0.16973 -0.355973,-0.16973 -3.612162,5.8933 -3.612162,5.8933 -5.166328,-2.46379 -5.166328,-2.46379 2.305884,-6.51626 z m 7.55435,9.41882 c 0.05043,-0.084 0.269627,-0.44302 0.487097,-0.79787 0.407846,-0.66549 0.529806,-0.86467 2.363248,-3.85944 0.597565,-0.97607 1.231846,-2.01199 1.409516,-2.30204 0.177668,-0.29006 0.502537,-0.82057 0.721928,-1.17891 0.219392,-0.35835 0.611524,-0.99871 0.871404,-1.42303 0.259881,-0.42432 0.479739,-0.78665 0.488574,-0.80518 l 0.01606,-0.0337 -5.133671,-2.44821 -5.133672,-2.44822 -0.01616,0.0339 c -0.0089,0.0186 -0.130174,0.35582 -0.269525,0.7493 -0.139351,0.39348 -0.390097,1.10116 -0.557214,1.57262 -0.167118,0.47146 -0.39676,1.11953 -0.510317,1.44016 -0.113557,0.32063 -0.519296,1.46554 -0.901641,2.54425 -1.17311,3.30968 -1.251117,3.52981 -1.511538,4.26561 -0.138862,0.39234 -0.279892,0.78866 -0.313402,0.8807 l -0.06093,0.16736 3.979269,1.89769 3.979269,1.89769 z m -4.035959,-8.5426 1.713129,-3.59227 0.653139,0.31148 0.653139,0.31148 -1.713129,3.59226 -1.713129,3.59227 -0.653139,-0.31148 -0.653139,-0.31148 z m 1.959417,0.93443 1.713129,-3.59226 0.653139,0.31147 0.653138,0.31148 -1.713129,3.59227 -1.713129,3.59226 -0.653139,-0.31148 -0.653139,-0.31148 z m 1.959416,0.93443 1.713129,-3.59226 0.653139,0.31148 0.653139,0.31148 -1.713129,3.59226 -1.713129,3.59226 -0.653139,-0.31147 -0.653139,-0.31148 z m 3.426258,-7.18452 0.155739,-0.32657 -1.306277,-0.62296 -1.306278,-0.62296 -0.155739,0.32657 -0.155739,0.32657 1.306278,0.62296 1.306277,0.62296 z"
         id="path130"
         inkscape:connector-curvature="0" />
      <path
         style="fill:#ff6600;fill-opacity:1;stroke-width:0.99999994"
         d="m 63.019752,274.6085 c 0.01029,-0.0216 1.004189,-2.82506 2.208674,-6.22997 1.204486,-3.40492 2.2355,-6.31876 2.291142,-6.47521 l 0.101168,-0.28445 -0.356635,-0.17007 -0.356634,-0.17008 0.311478,-0.65314 0.311478,-0.65314 2.284928,1.08967 2.284929,1.08967 0.215459,-0.43838 c 0.207639,-0.42248 0.218861,-0.44236 0.309227,-0.5479 0.360846,-0.42141 0.85212,-0.58492 1.396496,-0.46481 0.109469,0.0242 0.201696,0.0664 1.624807,0.74512 1.423111,0.67868 1.514027,0.72372 1.601698,0.79358 0.214956,0.17129 0.368525,0.37589 0.457137,0.60903 0.09222,0.24264 0.111795,0.49064 0.06066,0.7687 -0.02513,0.13665 -0.03351,0.15788 -0.231111,0.58515 l -0.205036,0.44335 2.284928,1.08967 2.284929,1.08967 -0.311478,0.65314 -0.311478,0.65314 -0.356635,-0.17008 -0.356635,-0.17008 -0.157358,0.25766 c -0.08655,0.14171 -1.70184,2.77691 -3.58954,5.856 -1.8877,3.0791 -3.440596,5.616 -3.450882,5.63757 l -0.0187,0.0392 -5.17286,-2.4669 -5.172859,-2.46691 z m 10.167735,2.42387 c 0.226663,-0.3703 1.360954,-2.22299 2.520647,-4.11707 1.159693,-1.89408 2.426503,-3.96315 2.815132,-4.59793 l 0.706601,-1.15415 -2.568921,-1.22916 c -1.412907,-0.67603 -3.726351,-1.7793 -5.140988,-2.4517 l -2.572067,-1.22256 -0.452098,1.27553 c -0.248655,0.70153 -1.059092,2.98825 -1.800972,5.08158 -0.741881,2.09333 -1.46758,4.14087 -1.612667,4.55008 l -0.263793,0.74402 3.978506,1.89733 3.978507,1.89732 z m -4.355612,-8.02162 1.713129,-3.59227 0.653139,0.31148 0.653139,0.31148 -1.713129,3.59226 -1.713129,3.59227 -0.653139,-0.31148 -0.653139,-0.31148 z m 1.959417,0.93443 1.713129,-3.59226 0.653139,0.31147 0.653138,0.31148 -1.713129,3.59227 -1.713129,3.59226 -0.653139,-0.31148 -0.653139,-0.31148 z m 1.959416,0.93443 1.713129,-3.59226 0.653139,0.31148 0.653139,0.31148 -1.713129,3.59226 -1.713129,3.59226 -0.653139,-0.31147 -0.653139,-0.31148 z m 3.426258,-7.18452 0.155739,-0.32657 -1.306277,-0.62296 -1.306278,-0.62296 -0.155739,0.32657 -0.155739,0.32657 1.306278,0.62296 1.306277,0.62296 z"
         id="path128"
         inkscape:connector-curvature="0" />
      <path
         style="fill:#ff6600;fill-opacity:1;stroke-width:0.99999994"
         d="m 63.01638,274.635 c 0.0034,-0.0206 4.588411,-12.9718 4.601384,-12.9975 0.0063,-0.0125 -0.0722,-0.0545 -0.351071,-0.18747 l -0.359226,-0.17131 0.311478,-0.65314 0.311478,-0.65314 2.284805,1.08961 2.284806,1.08961 0.2157,-0.43827 c 0.210452,-0.4276 0.218057,-0.441 0.312598,-0.55053 0.352382,-0.40824 0.799379,-0.56685 1.336625,-0.47426 l 0.146436,0.0252 1.521813,0.72575 c 1.435833,0.68474 1.527065,0.72992 1.614761,0.7998 0.435888,0.34734 0.616217,0.82572 0.517733,1.37345 -0.0256,0.14241 -0.03122,0.15675 -0.231039,0.58943 l -0.204795,0.44347 2.284805,1.08961 2.284806,1.08961 -0.311478,0.65314 -0.311478,0.65314 -0.357178,-0.17034 -0.357177,-0.17034 -0.126958,0.20802 c -0.06983,0.11441 -1.694466,2.76501 -3.610309,5.89023 l -3.483353,5.6822 -5.164128,-2.45871 c -4.125096,-1.96402 -5.163505,-2.46245 -5.161038,-2.4773 z m 9.775942,3.04964 c 0.0062,-0.013 0.956494,-1.56747 2.111722,-3.45428 1.155228,-1.88682 2.592418,-4.23492 3.193756,-5.21801 0.601339,-0.98309 1.103903,-1.80224 1.116809,-1.82034 l 0.02347,-0.0329 -5.146081,-2.45413 -5.146081,-2.45414 -0.0108,0.0389 c -0.0059,0.0214 -0.326144,0.92753 -0.711568,2.01359 -0.385424,1.08605 -1.305445,3.68079 -2.044491,5.76608 -0.739047,2.08529 -1.34881,3.80211 -1.355029,3.81515 -0.0109,0.0229 0.132641,0.0924 3.972839,1.92373 3.840198,1.83137 3.984558,1.89915 3.995455,1.8763 z m -3.960447,-8.67389 1.713129,-3.59227 0.653139,0.31148 0.653139,0.31148 -1.713129,3.59226 -1.713129,3.59227 -0.653139,-0.31148 -0.653139,-0.31148 z m 1.959417,0.93443 1.713129,-3.59226 0.653139,0.31147 0.653138,0.31148 -1.713129,3.59227 -1.713129,3.59226 -0.653139,-0.31148 -0.653139,-0.31148 z m 1.959416,0.93443 1.713129,-3.59226 0.653139,0.31148 0.653139,0.31148 -1.713129,3.59226 -1.713129,3.59226 -0.653139,-0.31147 -0.653139,-0.31148 z m 3.426258,-7.18452 0.155739,-0.32657 -1.306277,-0.62296 -1.306278,-0.62296 -0.155739,0.32657 -0.155739,0.32657 1.306278,0.62296 1.306277,0.62296 z"
         id="path126"
         inkscape:connector-curvature="0" />
      <path
         style="fill:#ff6600;fill-opacity:1;stroke-width:0.99999994"
         d="m 63.022614,274.62192 c 0.0056,-0.0224 3.903321,-11.04084 4.574094,-12.93033 l 0.02556,-0.072 -0.357399,-0.17044 -0.357398,-0.17044 0.311478,-0.65314 0.311478,-0.65314 2.285986,1.09017 2.285985,1.09018 0.179359,-0.37543 c 0.09865,-0.20649 0.204856,-0.41378 0.236018,-0.46065 0.376732,-0.56659 0.980083,-0.78029 1.629453,-0.57714 0.133733,0.0418 2.868993,1.34598 2.987899,1.4246 0.569313,0.37641 0.784279,0.98043 0.580618,1.63142 -0.0168,0.0537 -0.111033,0.26672 -0.209395,0.47334 l -0.178841,0.37568 2.285986,1.09018 2.285986,1.09017 -0.311478,0.65314 -0.311478,0.65314 -0.357399,-0.17045 -0.357399,-0.17044 -0.03985,0.0652 c -1.046052,1.71053 -7.154724,11.6746 -7.168628,11.69301 l -0.02003,0.0265 -5.159299,-2.46043 -5.159299,-2.46044 z m 9.767229,3.06792 c 0.01407,-0.0295 6.392127,-10.44761 6.422588,-10.49085 l 0.02748,-0.039 -5.147917,-2.45501 -5.147918,-2.45501 -0.01301,0.0459 c -0.01442,0.0509 -4.095443,11.56443 -4.109515,11.59394 -0.0076,0.0159 0.545916,0.28307 3.975318,1.91853 3.429402,1.63546 3.985376,1.89744 3.992976,1.8815 z m -3.957968,-8.67909 1.713129,-3.59227 0.653139,0.31148 0.653139,0.31148 -1.713129,3.59226 -1.713129,3.59227 -0.653139,-0.31148 -0.653139,-0.31148 z m 1.959417,0.93443 1.713129,-3.59226 0.653139,0.31147 0.653138,0.31148 -1.713129,3.59227 -1.713129,3.59226 -0.653139,-0.31148 -0.653139,-0.31148 z m 1.959416,0.93443 1.713129,-3.59226 0.653139,0.31148 0.653139,0.31148 -1.713129,3.59226 -1.713129,3.59226 -0.653139,-0.31147 -0.653139,-0.31148 z m 3.426258,-7.18452 0.155739,-0.32657 -1.306277,-0.62296 -1.306278,-0.62296 -0.155739,0.32657 -0.155739,0.32657 1.306278,0.62296 1.306277,0.62296 z"
         id="path124"
         inkscape:connector-curvature="0" />
      <path
         style="fill:#ff6600;fill-opacity:1;stroke-width:0.99999994"
         d="m 63.028716,274.60879 c 0.0074,-0.0251 0.04654,-0.13814 0.08702,-0.25111 0.04048,-0.11297 1.069165,-3.01927 2.285966,-6.45844 1.216801,-3.43917 2.215033,-6.25863 2.218293,-6.26547 0.0036,-0.008 -0.134762,-0.0795 -0.3533,-0.18374 l -0.359226,-0.17131 0.311478,-0.65314 0.311478,-0.65314 2.285986,1.09017 2.285985,1.09018 0.176064,-0.36899 c 0.186543,-0.39096 0.271284,-0.53344 0.400315,-0.67312 0.378458,-0.40969 0.892576,-0.54301 1.446283,-0.37505 0.196703,0.0597 2.86039,1.32996 3.030564,1.44525 0.477773,0.3237 0.698817,0.80942 0.618885,1.35992 -0.02732,0.18818 -0.08471,0.34371 -0.271091,0.73475 l -0.175909,0.36906 2.285986,1.09018 2.285986,1.09017 -0.311478,0.65314 -0.311478,0.65314 -0.359226,-0.17132 c -0.218539,-0.10422 -0.361548,-0.16644 -0.365154,-0.15888 -0.0033,0.007 -1.565844,2.55716 -3.47241,5.66738 -1.906567,3.11022 -3.517465,5.73887 -3.579772,5.84143 -0.06231,0.10257 -0.12547,0.20412 -0.140361,0.22568 l -0.02707,0.0392 -5.158613,-2.46011 -5.158613,-2.46012 z m 9.758201,3.08719 c 0.01149,-0.0241 6.392468,-10.44553 6.423048,-10.49015 l 0.03106,-0.0453 -5.14903,-2.45554 -5.149031,-2.45554 -0.01566,0.0527 c -0.01542,0.0519 -4.097187,11.56976 -4.108677,11.59385 -0.0037,0.008 1.477981,0.72004 3.978244,1.9124 2.500263,1.19236 3.986345,1.8954 3.99005,1.88764 z m -3.955042,-8.68523 1.713129,-3.59227 0.653139,0.31148 0.653139,0.31148 -1.713129,3.59226 -1.713129,3.59227 -0.653139,-0.31148 -0.653139,-0.31148 z m 1.959417,0.93443 1.713129,-3.59226 0.653139,0.31147 0.653138,0.31148 -1.713129,3.59227 -1.713129,3.59226 -0.653139,-0.31148 -0.653139,-0.31148 z m 1.959416,0.93443 1.713129,-3.59226 0.653139,0.31148 0.653139,0.31148 -1.713129,3.59226 -1.713129,3.59226 -0.653139,-0.31147 -0.653139,-0.31148 z m 3.426258,-7.18452 0.155739,-0.32657 -1.306277,-0.62296 -1.306278,-0.62296 -0.155739,0.32657 -0.155739,0.32657 1.306278,0.62296 1.306277,0.62296 z"
         id="path122"
         inkscape:connector-curvature="0" />
      <path
         style="fill:#ff6600;fill-opacity:1;stroke-width:0.99999994"
         d="m 63.034681,274.5956 c 0.01043,-0.0325 0.455005,-1.29057 0.987941,-2.7957 0.532936,-1.50514 1.560083,-4.40766 2.282548,-6.45006 0.722465,-2.04239 1.315187,-3.71683 1.317161,-3.72097 0.002,-0.004 -0.158064,-0.0846 -0.355638,-0.17884 l -0.359226,-0.17131 0.311478,-0.65314 0.311478,-0.65314 2.285986,1.09017 2.285985,1.09018 0.169919,-0.35631 c 0.245197,-0.51415 0.340157,-0.65107 0.586791,-0.8461 0.242847,-0.19203 0.482731,-0.277 0.792307,-0.28063 0.189986,-0.002 0.338939,0.0209 0.519412,0.0808 0.152851,0.0507 2.808789,1.3173 2.94439,1.40416 0.15069,0.0965 0.265701,0.19817 0.372084,0.3288 0.209183,0.25689 0.300502,0.51454 0.299641,0.84545 -7.62e-4,0.29269 -0.05104,0.45928 -0.289514,0.95935 l -0.169919,0.3563 2.285986,1.09018 2.285986,1.09017 -0.311478,0.65314 -0.311478,0.65314 -0.359226,-0.17132 c -0.197575,-0.0942 -0.360842,-0.16792 -0.362815,-0.16379 -0.002,0.004 -0.930043,1.51866 -2.062375,3.36559 -1.132333,1.84693 -2.741267,4.47201 -3.575407,5.8335 -0.834142,1.36149 -1.531914,2.49881 -1.550606,2.52737 l -0.03398,0.0519 -5.158197,-2.45991 -5.158196,-2.45992 z m 9.749353,3.10642 c 0.0017,-0.003 0.63818,-1.04375 1.414488,-2.3117 0.776305,-1.26795 2.212952,-3.61509 3.192546,-5.21586 0.979595,-1.60078 1.79642,-2.93385 1.81517,-2.96239 l 0.03409,-0.0519 -5.148334,-2.45521 -5.148335,-2.45521 -0.01886,0.0591 c -0.01037,0.0325 -0.532124,1.50632 -1.159445,3.27509 -0.627321,1.76877 -1.546936,4.36248 -2.043588,5.7638 -0.496653,1.40131 -0.904364,2.5507 -0.906025,2.55418 -0.0017,0.003 1.789846,0.86134 3.981127,1.90635 2.191281,1.04501 3.985506,1.89716 3.987167,1.89368 z m -3.952159,-8.69127 1.713129,-3.59227 0.653139,0.31148 0.653139,0.31148 -1.713129,3.59226 -1.713129,3.59227 -0.653139,-0.31148 -0.653139,-0.31148 z m 1.959417,0.93443 1.713129,-3.59226 0.653139,0.31147 0.653138,0.31148 -1.713129,3.59227 -1.713129,3.59226 -0.653139,-0.31148 -0.653139,-0.31148 z m 1.959416,0.93443 1.713129,-3.59226 0.653139,0.31148 0.653139,0.31148 -1.713129,3.59226 -1.713129,3.59226 -0.653139,-0.31147 -0.653139,-0.31148 z m 3.426258,-7.18452 0.155739,-0.32657 -1.306277,-0.62296 -1.306278,-0.62296 -0.155739,0.32657 -0.155739,0.32657 1.306278,0.62296 1.306277,0.62296 z"
         id="path120"
         inkscape:connector-curvature="0" />
      <path
         style="fill:#ff6600;fill-opacity:1;stroke-width:0.99999994"
         d="m 63.016095,274.64979 c 0.006,-0.0126 4.568041,-12.90875 4.585918,-12.96369 l 0.02146,-0.0659 -0.358001,-0.17073 -0.358,-0.17073 0.311478,-0.65314 0.311478,-0.65314 2.285986,1.09017 2.285985,1.09018 0.163631,-0.34285 c 0.247089,-0.51771 0.350714,-0.66753 0.594161,-0.85904 0.339507,-0.26709 0.732581,-0.34433 1.194757,-0.23477 0.113716,0.0269 0.218892,0.0752 1.591326,0.72968 1.372435,0.65451 1.47611,0.70588 1.56863,0.77728 0.485222,0.37444 0.663646,0.86904 0.528677,1.46552 -0.01926,0.0851 -0.0665,0.20015 -0.218868,0.53296 l -0.194308,0.42442 2.284538,1.08949 2.284539,1.08948 -0.311478,0.65314 -0.311478,0.65314 -0.358001,-0.17073 -0.358,-0.17073 -0.03773,0.0582 c -0.03143,0.0485 -7.18108,11.71055 -7.187106,11.72319 -0.0011,0.002 -2.323889,-1.10315 -5.161777,-2.45652 -2.837888,-1.35338 -5.158905,-2.46255 -5.157816,-2.46483 z m 9.800125,2.99919 c 0.03509,-0.0542 1.673309,-2.7297 4.97143,-8.11915 0.758202,-1.23897 1.395419,-2.2789 1.416039,-2.31096 l 0.03749,-0.0583 -5.149186,-2.45561 -5.149186,-2.45562 -0.02169,0.0658 c -0.01193,0.0362 -0.418943,1.18591 -0.904472,2.55492 -2.112018,5.95509 -3.159898,8.9121 -3.179951,8.9735 l -0.02152,0.0659 3.981695,1.89885 3.981695,1.89884 z m -3.984345,-8.63823 1.713129,-3.59227 0.653139,0.31148 0.653139,0.31148 -1.713129,3.59226 -1.713129,3.59227 -0.653139,-0.31148 -0.653139,-0.31148 z m 1.959417,0.93443 1.713129,-3.59226 0.653139,0.31147 0.653138,0.31148 -1.713129,3.59227 -1.713129,3.59226 -0.653139,-0.31148 -0.653139,-0.31148 z m 1.959416,0.93443 1.713129,-3.59226 0.653139,0.31148 0.653139,0.31148 -1.713129,3.59226 -1.713129,3.59226 -0.653139,-0.31147 -0.653139,-0.31148 z m 3.426258,-7.18452 0.155739,-0.32657 -1.306277,-0.62296 -1.306278,-0.62296 -0.155739,0.32657 -0.155739,0.32657 1.306278,0.62296 1.306277,0.62296 z"
         id="path118"
         inkscape:connector-curvature="0" />
    </g>
    <g
       aria-label="RAP"
       transform="matrix(0.85668695,-0.83035691,0.84074986,0.8451919,-22.826492,-59.368863)"
       style="font-style:normal;font-variant:normal;font-weight:normal;font-stretch:normal;font-size:11.47691631px;line-height:125%;font-family:Trueno;-inkscape-font-specification:Trueno;letter-spacing:0px;word-spacing:0px;fill:#ffffff;fill-opacity:1;stroke:#000000;stroke-width:0.1383584;stroke-linecap:butt;stroke-linejoin:miter;stroke-miterlimit:4;stroke-dasharray:none;stroke-opacity:1"
       id="text107">
      <path
         d="m -138.82536,242.5264 h 2.31834 l -1.68711,-2.65117 c 0.94111,-0.47055 1.45757,-1.35428 1.45757,-2.58231 0,-1.7904 -1.21655,-2.80036 -3.33978,-2.80036 h -3.59228 v 8.03384 h 2.0429 v -2.26095 h 1.54938 0.0574 z m -2.80036,-3.86772 v -2.55936 h 1.54938 c 0.88372,0 1.40018,0.42465 1.40018,1.26247 0,0.84929 -0.51646,1.29689 -1.40018,1.29689 z"
         style="font-style:normal;font-variant:normal;font-weight:bold;font-stretch:normal;font-family:Trueno;-inkscape-font-specification:'Trueno Bold';fill:#ffffff;stroke:#000000;stroke-width:0.1383584;stroke-miterlimit:4;stroke-dasharray:none"
         id="path109"
         inkscape:connector-curvature="0" />
      <path
         d="m -130.01557,241.04588 0.57385,1.48052 h 2.18061 l -3.38569,-8.03384 h -2.10027 l -3.46603,8.03384 h 2.10027 l 0.58533,-1.48052 z m -0.5968,-1.54939 h -2.31834 l 1.17065,-2.97252 z"
         style="font-style:normal;font-variant:normal;font-weight:bold;font-stretch:normal;font-family:Trueno;-inkscape-font-specification:'Trueno Bold';fill:#ffffff;stroke:#000000;stroke-width:0.1383584;stroke-miterlimit:4;stroke-dasharray:none"
         id="path111"
         inkscape:connector-curvature="0" />
      <path
         d="m -126.52049,234.49256 v 8.03384 h 2.04289 v -2.26095 h 1.45757 c 2.05437,0 3.23649,-1.09031 3.23649,-2.97253 0,-1.7904 -1.18212,-2.80036 -3.23649,-2.80036 z m 2.04289,1.60676 h 1.35428 c 0.8952,0 1.41166,0.42465 1.41166,1.26247 0,0.84929 -0.51646,1.29689 -1.41166,1.29689 h -1.35428 z"
         style="font-style:normal;font-variant:normal;font-weight:bold;font-stretch:normal;font-family:Trueno;-inkscape-font-specification:'Trueno Bold';fill:#ffffff;stroke:#000000;stroke-width:0.1383584;stroke-miterlimit:4;stroke-dasharray:none"
         id="path113"
         inkscape:connector-curvature="0" />
    </g>
  </g>
</svg>
